<svg width="90" height="90" viewBox="0 0 90 90" fill="none" xmlns="http://www.w3.org/2000/svg">
<path d="M83.4761 45C83.4761 66.2499 66.2496 83.4763 44.9998 83.4763C23.7499 83.4763 6.52344 66.2499 6.52344 45C6.52344 23.7502 23.7499 6.52368 44.9998 6.52368C66.2496 6.52368 83.4761 23.7502 83.4761 45ZM16.1425 45C16.1425 60.9375 29.0623 73.8573 44.9998 73.8573C60.9372 73.8573 73.857 60.9375 73.857 45C73.857 29.0626 60.9372 16.1428 44.9998 16.1428C29.0623 16.1428 16.1425 29.0626 16.1425 45Z" fill="#2196F3"/>
<path d="M23.5649 40.0074C23.5649 38.4362 24.1891 36.9292 25.3002 35.8182C26.4113 34.707 27.9182 34.0829 29.4895 34.0829C31.0608 34.0829 32.5677 34.707 33.6788 35.8182C34.7899 36.9292 35.4141 38.4362 35.4141 40.0074H32.4518C32.4518 39.2218 32.1397 38.4684 31.5841 37.9128C31.0286 37.3572 30.2751 37.0452 29.4895 37.0452C28.7039 37.0452 27.9504 37.3572 27.3949 37.9128C26.8393 38.4684 26.5272 39.2218 26.5272 40.0074H23.5649Z" fill="#2196F3"/>
<path d="M54.1865 40.0074C54.1865 38.4362 54.8107 36.9292 55.9218 35.8182C57.0328 34.707 58.5398 34.0829 60.1111 34.0829C61.6824 34.0829 63.1893 34.707 64.3003 35.8182C65.4115 36.9292 66.0356 38.4362 66.0356 40.0074H63.0734C63.0734 39.2218 62.7613 38.4684 62.2057 37.9128C61.6501 37.3572 60.8967 37.0452 60.1111 37.0452C59.3254 37.0452 58.572 37.3572 58.0164 37.9128C57.4609 38.4684 57.1488 39.2218 57.1488 40.0074H54.1865Z" fill="#2196F3"/>
<path d="M16.1094 45.0665C16.1094 48.8517 16.8549 52.5999 18.3035 56.097C19.752 59.5941 21.8751 62.7716 24.5517 65.4482C27.2282 68.1246 30.4058 70.2479 33.9029 71.6964C37.4 73.1449 41.1481 73.8905 44.9333 73.8905C48.7185 73.8905 52.4667 73.1449 55.9638 71.6964C59.4609 70.2479 62.6384 68.1248 65.315 65.4482C67.9914 62.7716 70.1147 59.5941 71.5632 56.097C73.0117 52.5999 73.7573 48.8517 73.7573 45.0665H44.9333H16.1094Z" fill="#FF5722"/>
<path d="M0.399408 0.266272H89.6006V0H0.399408V0.266272ZM89.7337 0.399408V89.6006H90V0.399408H89.7337ZM89.6006 89.7337H0.399408V90H89.6006V89.7337ZM0.266272 89.6006V0.399408H0V89.6006H0.266272ZM0.399408 89.7337C0.325877 89.7337 0.266272 89.6741 0.266272 89.6006H0C0 89.8212 0.178815 90 0.399408 90V89.7337ZM89.7337 89.6006C89.7337 89.6741 89.6741 89.7337 89.6006 89.7337V90C89.8212 90 90 89.8212 90 89.6006H89.7337ZM89.6006 0.266272C89.6741 0.266272 89.7337 0.325877 89.7337 0.399408H90C90 0.178815 89.8212 0 89.6006 0V0.266272ZM0.399408 0C0.178815 0 0 0.178815 0 0.399408H0.266272C0.266272 0.325877 0.325877 0.266272 0.399408 0.266272V0Z" fill="black" fill-opacity="0.1"/>
</svg>
